<?xml version="1.0" standalone="no"?>
<!DOCTYPE svg PUBLIC "-//W3C//DTD SVG 1.1//EN"
    "http://www.w3.org/Graphics/SVG/1.1/DTD/svg11.dtd">
<svg width="100%" height="100%" viewBox="0 0 600 900"
    version="1.1" xmlns="http://www.w3.org/2000/svg">
    <g transform="scale(1, 1)">
        
        <!-- ** Swoosh SHADOW *************** -->
        
        <g>
            <defs>
                <filter id="fillShadow-D9256D4A-F025-4B0C-B717-5B37FEEE7E57">
                    <feGaussianBlur in="SourceAlpha" stdDeviation="2.4" />
                    <feOffset dx="2.0" dy="2.0" />
                    <!-- <feFlood flood-color="rgb(0, 0, 0);" flood-opacity="0.33" /> -->
                    <feMerge>
                        <feMergeNode />
                        <feMergeNode in="SourceGraphic" />
                    </feMerge>
                </filter>
            </defs>
            <path
                d="
                    M150.00 740.00
                    L450.00 740.00
                    L450.00 821.00
                    C450.00 821.00 413.00 811.00 375.00 811.00
                    C338.00 811.00 300.00 821.00 300.00 821.00
                    C300.00 821.00 263.00 830.00 225.00 830.00
                    C188.00 830.00 150.00 821.00 150.00 821.00
                    Z
                    "
            fill="rgb(0, 0, 0)"
            filter="url(#fillShadow-D9256D4A-F025-4B0C-B717-5B37FEEE7E57)"
            />
        </g>
        
        
        <!-- ** Swoosh *************** -->
        
        <g>
            <path
                d="
                    M150.00 740.00
                    L450.00 740.00
                    L450.00 821.00
                    C450.00 821.00 413.00 811.00 375.00 811.00
                    C338.00 811.00 300.00 821.00 300.00 821.00
                    C300.00 821.00 263.00 830.00 225.00 830.00
                    C188.00 830.00 150.00 821.00 150.00 821.00
                    Z
                    "
                fill="rgb(34, 6, 159)"
                />
            
            
            <text x="198.97" y="803.00"
            >
                <tspan style="font-family:Helvetica; font-size:18px; font-style:normal; font-weight:normal;" fill="rgb(255, 255, 255)">AMM Physical Connector</tspan>
            </text>
        </g>
        
        
        <!-- ** Rounded Rectangle *************** -->
        
        <g>
            <path
                d="
                    M126.91 750.00
                    C95.48 750.00 70.00 724.52 70.00 693.09
                    L70.00 116.91
                    C70.00 85.48 95.48 60.00 126.91 60.00
                    L473.09 60.00
                    C504.52 60.00 530.00 85.48 530.00 116.91
                    L530.00 693.09
                    C530.00 724.52 504.52 750.00 473.09 750.00
                    Z
                    "
                fill="rgb(34, 6, 159)"
                />
            
            
            <text x="163.10" y="101.00"
            >
                <tspan style="font-family:Helvetica; font-size:24px; font-style:normal; font-weight:normal;" fill="rgb(255, 255, 255)">Example Physical Module</tspan>
            </text>
        </g>
        
        
        <!-- ** Rounded Rectangle *************** -->
        
        <g>
            <path
                d="
                    M127.10 740.00
                    C101.09 740.00 80.00 718.91 80.00 692.90
                    L80.00 437.10
                    C80.00 411.09 101.09 390.00 127.10 390.00
                    L472.90 390.00
                    C498.91 390.00 520.00 411.09 520.00 437.10
                    L520.00 692.90
                    C520.00 718.91 498.91 740.00 472.90 740.00
                    Z
                    "
                fill="rgb(0, 128, 128)"
                />
            
            
            <text x="181.13" y="428.00"
            >
                <tspan style="font-family:Helvetica; font-size:24px; font-style:normal; font-weight:normal;" fill="rgb(255, 255, 255)">AMM Development Kit</tspan>
            </text>
        </g>
        
        
        <!-- ** Swoosh *************** -->
        
        <g>
            <path
                d="
                    M230.00 710.00
                    L370.00 710.00
                    L370.00 772.00
                    C370.00 772.00 353.00 763.00 335.00 763.00
                    C318.00 763.00 300.00 772.00 300.00 772.00
                    C300.00 772.00 283.00 780.00 265.00 780.00
                    C248.00 780.00 230.00 772.00 230.00 772.00
                    Z
                    "
                fill="rgb(0, 128, 128)"
                />
            
            
            <text x="265.98" y="732.00"
            >
                <tspan style="font-family:Helvetica; font-size:18px; font-style:normal; font-weight:normal;" fill="rgb(255, 255, 255)">Ethernet </tspan>
            </text>
            <text x="258.48" y="754.00"
            >
                <tspan style="font-family:Helvetica; font-size:18px; font-style:normal; font-weight:normal;" fill="rgb(255, 255, 255)">Connector</tspan>
            </text>
        </g>
        
        
        <!-- ** Rounded Rectangle *************** -->
        
        <g>
            <path
                d="
                    M128.24 700.00
                    C107.12 700.00 90.00 682.88 90.00 661.76
                    L90.00 478.24
                    C90.00 457.12 107.12 440.00 128.24 440.00
                    L471.76 440.00
                    C492.88 440.00 510.00 457.12 510.00 478.24
                    L510.00 661.76
                    C510.00 682.88 492.88 700.00 471.76 700.00
                    Z
                    "
                fill="rgb(0, 128, 255)"
                />
            
        </g>
        
        
        <!-- ** Rounded Rectangle *************** -->
        
        <g>
            <path
                d="
                    M128.84 700.00
                    C107.39 700.00 90.00 682.61 90.00 661.16
                    L90.00 648.84
                    C90.00 627.39 107.39 610.00 128.84 610.00
                    L471.16 610.00
                    C492.61 610.00 510.00 627.39 510.00 648.84
                    L510.00 661.16
                    C510.00 682.61 492.61 700.00 471.16 700.00
                    Z
                    "
                fill="rgb(102, 204, 255)"
                />
            
            
            <text x="244.10" y="683.00"
            >
                <tspan style="font-family:Helvetica; font-size:14px; font-style:normal; font-weight:normal;" fill="rgb(0, 0, 0)">AMM DDS Library</tspan>
            </text>
        </g>
        
        
        <!-- ** Rectangle *************** -->
        
        <g>
            <rect x="90.00" y="490.00" width="420.00" height="170.00"
                fill="rgb(0, 128, 255)"
                />
            
            
            <text x="150.92" y="526.50"
            >
                <tspan style="font-family:Helvetica; font-size:18px; font-style:normal; font-weight:normal;" fill="rgb(0, 0, 0)">Interfaces with sensors and actuators
                </tspan>
            </text>
            <text x="147.43" y="548.50"
            >
                <tspan style="font-family:Helvetica; font-size:18px; font-style:normal; font-weight:normal;" fill="rgb(0, 0, 0)">Provides cues, interprets interventions
                </tspan>
            </text>
            <text x="179.93" y="570.50"
            >
                <tspan style="font-family:Helvetica; font-size:18px; font-style:normal; font-weight:normal;" fill="rgb(0, 0, 0)">Manages any local physiology
                </tspan>
            </text>
            <text x="176.94" y="592.50"
            >
                <tspan style="font-family:Helvetica; font-size:18px; font-style:normal; font-weight:normal;" fill="rgb(0, 0, 0)">Manages local simulation state
                </tspan>
            </text>
            <text x="110.40" y="614.50"
            >
                <tspan style="font-family:Helvetica; font-size:18px; font-style:normal; font-weight:normal;" fill="rgb(0, 0, 0)">Configures AMM library for needed data access
                </tspan>
            </text>
            <text x="123.27" y="636.50"
            >
                <tspan style="font-family:Helvetica; font-size:18px; font-style:normal; font-weight:normal;" fill="rgb(0, 0, 0)">Transmits and receives data via AMM library</tspan>
            </text>
        </g>
        
        
        <!-- ** Rounded Rectangle *************** -->
        
        <g>
            <path
                d="
                    M130.14 700.00
                    C107.97 700.00 90.00 682.03 90.00 659.86
                    L90.00 480.14
                    C90.00 457.97 107.97 440.00 130.14 440.00
                    L469.86 440.00
                    C492.03 440.00 510.00 457.97 510.00 480.14
                    L510.00 659.86
                    C510.00 682.03 492.03 700.00 469.86 700.00
                    Z
                    "
                fill="none"
                />
            
            
            <text x="163.13" y="477.00"
            >
                <tspan style="font-family:Helvetica; font-size:24px; font-style:normal; font-weight:normal;" fill="rgb(0, 0, 0)">Custom Module Firmware</tspan>
            </text>
        </g>
        
        
        <!-- ** Rounded Rectangle *************** -->
        
        <g>
            <path
                d="
                    M176.90 190.00
                    C162.04 190.00 150.00 177.96 150.00 163.10
                    L150.00 156.90
                    C150.00 142.04 162.04 130.00 176.90 130.00
                    L423.10 130.00
                    C437.96 130.00 450.00 142.04 450.00 156.90
                    L450.00 163.10
                    C450.00 177.96 437.96 190.00 423.10 190.00
                    Z
                    "
                fill="rgb(0, 128, 128)"
                />
            
            
            <text x="204.45" y="167.00"
            >
                <tspan style="font-family:Helvetica; font-size:18px; font-style:normal; font-weight:normal;" fill="rgb(255, 255, 255)">Sensors, Actuators, Etc.</tspan>
            </text>
        </g>
        
        
        <!-- ** Rounded Rectangle *************** -->
        
        <g>
            <path
                d="
                    M174.67 290.00
                    C161.05 290.00 150.00 278.95 150.00 265.33
                    L150.00 254.67
                    C150.00 241.05 161.05 230.00 174.67 230.00
                    L425.33 230.00
                    C438.95 230.00 450.00 241.05 450.00 254.67
                    L450.00 265.33
                    C450.00 278.95 438.95 290.00 425.33 290.00
                    Z
                    "
                fill="rgb(0, 128, 128)"
                />
            
            
            <text x="222.95" y="267.00"
            >
                <tspan style="font-family:Helvetica; font-size:18px; font-style:normal; font-weight:normal;" fill="rgb(255, 255, 255)">Signal Conditioning</tspan>
            </text>
        </g>
        
        
        <!-- ** Rounded Rectangle *************** -->
        
        <g>
            <path
                d="
                    M175.92 390.00
                    C161.61 390.00 150.00 378.39 150.00 364.08
                    L150.00 355.92
                    C150.00 341.61 161.61 330.00 175.92 330.00
                    L424.08 330.00
                    C438.39 330.00 450.00 341.61 450.00 355.92
                    L450.00 364.08
                    C450.00 378.39 438.39 390.00 424.08 390.00
                    Z
                    "
                transform="
                    translate(0.5 0.5)
                    "
                fill="rgb(0, 128, 128)"
                stroke-width="1.00"
                stroke-linecap="butt"
                stroke-linejoin="round"
                stroke="rgb(34, 6, 159)"
                />
            
            
            <text x="198.43" y="367.00"
            >
                <tspan style="font-family:Helvetica; font-size:18px; font-style:normal; font-weight:normal;" fill="rgb(255, 255, 255)">Module Application Board</tspan>
            </text>
        </g>
        
        
        <!-- ** Arc *************** -->
        
        <g>
            <path
                d="
                    M220.00 190.00
                    C245.00 190.00 270.00 210.00 270.00 230.00
                    "
                transform="
                    translate(0.5 0.5)
                    "
                fill="none"
                stroke-width="2.00"
                stroke-linecap="butt"
                stroke-linejoin="round"
                stroke="rgb(0, 0, 0)"
                />
            
        </g>
        
        
        <!-- ** Arc *************** -->
        
        <g>
            <path
                d="
                    M250.00 190.00
                    C265.00 190.00 280.00 210.00 280.00 230.00
                    "
                transform="
                    translate(0.5 0.5)
                    "
                fill="none"
                stroke-width="2.00"
                stroke-linecap="butt"
                stroke-linejoin="round"
                stroke="rgb(0, 0, 0)"
                />
            
        </g>
        
        
        <!-- ** Arc *************** -->
        
        <g>
            <path
                d="
                    M280.00 190.00
                    C285.00 190.00 290.00 210.00 290.00 230.00
                    "
                transform="
                    translate(0.5 0.5)
                    "
                fill="none"
                stroke-width="2.00"
                stroke-linecap="butt"
                stroke-linejoin="round"
                stroke="rgb(0, 0, 0)"
                />
            
        </g>
        
        
        <!-- ** Arc *************** -->
        
        <g>
            <path
                d="
                    M320.00 190.00
                    C315.00 190.00 310.00 210.00 310.00 230.00
                    "
                transform="
                    translate(0.5 0.5)
                    "
                fill="none"
                stroke-width="2.00"
                stroke-linecap="butt"
                stroke-linejoin="round"
                stroke="rgb(0, 0, 0)"
                />
            
        </g>
        
        
        <!-- ** Arc *************** -->
        
        <g>
            <path
                d="
                    M350.00 190.00
                    C335.00 190.00 320.00 210.00 320.00 230.00
                    "
                transform="
                    translate(0.5 0.5)
                    "
                fill="none"
                stroke-width="2.00"
                stroke-linecap="butt"
                stroke-linejoin="round"
                stroke="rgb(0, 0, 0)"
                />
            
        </g>
        
        
        <!-- ** Arc *************** -->
        
        <g>
            <path
                d="
                    M380.00 190.00
                    C355.00 190.00 330.00 210.00 330.00 230.00
                    "
                transform="
                    translate(0.5 0.5)
                    "
                fill="none"
                stroke-width="2.00"
                stroke-linecap="butt"
                stroke-linejoin="round"
                stroke="rgb(0, 0, 0)"
                />
            
        </g>
        
        
        <!-- ** Arc *************** -->
        
        <g>
            <path
                d="
                    M300.00 190.00
                    C300.00 190.00 300.00 210.00 300.00 230.00
                    "
                transform="
                    translate(0.5 0.5)
                    "
                fill="none"
                stroke-width="2.00"
                stroke-linecap="butt"
                stroke-linejoin="round"
                stroke="rgb(0, 0, 0)"
                />
            
        </g>
        
        
        <!-- ** Line *************** -->
        
        <g>
            <path
                d="
                    M300.00 290.00
                    L300.00 330.00
                    "
                transform="
                    translate(0.5 0.5)
                    "
                fill="none"
                stroke-width="2.00"
                stroke-linecap="butt"
                stroke-linejoin="round"
                stroke="rgb(0, 0, 0)"
                />
            
        </g>
        
        
        <!-- ** Line *************** -->
        
        <g>
            <path
                d="
                    M310.00 290.00
                    L310.00 330.00
                    "
                transform="
                    translate(0.5 0.5)
                    "
                fill="none"
                stroke-width="2.00"
                stroke-linecap="butt"
                stroke-linejoin="round"
                stroke="rgb(0, 0, 0)"
                />
            
        </g>
        
        
        <!-- ** Line *************** -->
        
        <g>
            <path
                d="
                    M320.00 290.00
                    L320.00 330.00
                    "
                transform="
                    translate(0.5 0.5)
                    "
                fill="none"
                stroke-width="2.00"
                stroke-linecap="butt"
                stroke-linejoin="round"
                stroke="rgb(0, 0, 0)"
                />
            
        </g>
        
        
        <!-- ** Line *************** -->
        
        <g>
            <path
                d="
                    M330.00 290.00
                    L330.00 330.00
                    "
                transform="
                    translate(0.5 0.5)
                    "
                fill="none"
                stroke-width="2.00"
                stroke-linecap="butt"
                stroke-linejoin="round"
                stroke="rgb(0, 0, 0)"
                />
            
        </g>
        
        
        <!-- ** Line *************** -->
        
        <g>
            <path
                d="
                    M290.00 290.00
                    L290.00 330.00
                    "
                transform="
                    translate(0.5 0.5)
                    "
                fill="none"
                stroke-width="2.00"
                stroke-linecap="butt"
                stroke-linejoin="round"
                stroke="rgb(0, 0, 0)"
                />
            
        </g>
        
        
        <!-- ** Line *************** -->
        
        <g>
            <path
                d="
                    M280.00 290.00
                    L280.00 330.00
                    "
                transform="
                    translate(0.5 0.5)
                    "
                fill="none"
                stroke-width="2.00"
                stroke-linecap="butt"
                stroke-linejoin="round"
                stroke="rgb(0, 0, 0)"
                />
            
        </g>
        
        
        <!-- ** Line *************** -->
        
        <g>
            <path
                d="
                    M270.00 290.00
                    L270.00 330.00
                    "
                transform="
                    translate(0.5 0.5)
                    "
                fill="none"
                stroke-width="2.00"
                stroke-linecap="butt"
                stroke-linejoin="round"
                stroke="rgb(0, 0, 0)"
                />
            
        </g>
        
    </g>
</svg>

