<?xml version="1.0" standalone="no"?>
<!DOCTYPE svg PUBLIC "-//W3C//DTD SVG 1.1//EN"
    "http://www.w3.org/Graphics/SVG/1.1/DTD/svg11.dtd">
<svg width="100%" height="100%" viewBox="0 0 1600 1600"
    version="1.1" xmlns="http://www.w3.org/2000/svg">
    <g transform="scale(1, 1)">
        
        <!-- ** Rounded Rectangle *************** -->
        
        <g>
            <path
                d="
                    M532.72 1180.00
                    C509.13 1180.00 490.00 1160.87 490.00 1137.28
                    L490.00 422.72
                    C490.00 399.13 509.13 380.00 532.72 380.00
                    L1057.28 380.00
                    C1080.87 380.00 1100.00 399.13 1100.00 422.72
                    L1100.00 1137.28
                    C1100.00 1160.87 1080.87 1180.00 1057.28 1180.00
                    Z
                    "
                fill="rgb(140, 192, 228)"
                />
            
            
            <text x="726.16" y="441.00"
            >
                <tspan style="font-family:Helvetica; font-size:48px; font-style:normal; font-weight:normal;" fill="rgb(0, 0, 0)">CORE</tspan>
            </text>
        </g>
        
        
        <!-- ** Smart Path *************** -->
        
        <g>
            <path
                d="
                    M690.00 1100.00
                    C690.00 1100.00 690.62 1192.96 690.00 1200.00
                    C689.38 1207.04 687.06 1209.63 680.00 1210.00
                    C672.94 1210.37 457.06 1210.37 450.00 1210.00
                    C442.93 1209.75 440.00 1207.07 440.00 1200.00
                    C439.88 1192.93 440.00 357.07 440.00 350.00
                    C440.00 342.93 442.94 340.37 450.00 340.00
                    C457.06 339.63 712.94 340.37 720.00 340.00
                    C727.06 339.63 729.02 337.00 730.00 330.00
                    C730.98 323.00 730.00 270.00 730.00 270.00
                    "
                transform="
                    translate(0.5 0.5)
                    "
                fill="none"
                stroke-width="8.00"
                stroke-linecap="butt"
                stroke-linejoin="round"
                stroke="rgb(179, 179, 179)"
                />
            
        </g>
        
        
        <!-- ** Cylinder *************** -->
        
        <g>
            <path
                d="
                    M80.00 600.00
                    C80.00 600.00 60.00 600.00 60.00 591.00
                    L60.00 559.00
                    C60.00 559.00 60.00 550.00 80.00 550.00
                    C80.00 550.00 100.00 550.00 100.00 559.00
                    L100.00 591.00
                    C100.00 600.00 80.00 600.00 80.00 600.00
                    Z
                    "
                transform="
                    translate(0.5 0.5)
                    rotate(90 80.00 575.00)
                    "
                fill="rgb(34, 6, 159)"
                stroke-width="1.00"
                stroke-linecap="butt"
                stroke-linejoin="round"
                stroke="rgb(0, 0, 0)"
                />
            <path
                d="
                    M102.51 589.14
                    C99.19 596.95 93.81 596.95 90.49 589.14
                    C87.17 581.33 87.17 568.67 90.49 560.86
                    C93.81 553.05 99.19 553.05 102.51 560.86
                    C105.83 568.67 105.83 581.33 102.51 589.14
                    "
                fill="none"
                transform="translate(0.5 0.5)"
                stroke-width="1.00"
                stroke-linecap="butt"
                stroke-linejoin="round"
                stroke="rgb(0, 0, 0)"
                />
            
        </g>
        
        
        <!-- ** Cylinder *************** -->
        
        <g>
            <path
                d="
                    M80.00 470.00
                    C80.00 470.00 60.00 470.00 60.00 461.00
                    L60.00 429.00
                    C60.00 429.00 60.00 420.00 80.00 420.00
                    C80.00 420.00 100.00 420.00 100.00 429.00
                    L100.00 461.00
                    C100.00 470.00 80.00 470.00 80.00 470.00
                    Z
                    "
                transform="
                    translate(0.5 0.5)
                    rotate(90 80.00 445.00)
                    "
                fill="rgb(34, 6, 159)"
                stroke-width="1.00"
                stroke-linecap="butt"
                stroke-linejoin="round"
                stroke="rgb(0, 0, 0)"
                />
            <path
                d="
                    M102.51 459.14
                    C99.19 466.95 93.81 466.95 90.49 459.14
                    C87.17 451.33 87.17 438.67 90.49 430.86
                    C93.81 423.05 99.19 423.05 102.51 430.86
                    C105.83 438.67 105.83 451.33 102.51 459.14
                    "
                fill="none"
                transform="translate(0.5 0.5)"
                stroke-width="1.00"
                stroke-linecap="butt"
                stroke-linejoin="round"
                stroke="rgb(0, 0, 0)"
                />
            
        </g>
        
        
        <!-- ** Cylinder *************** -->
        
        <g>
            <path
                d="
                    M115.00 550.00
                    C115.00 550.00 0.00 550.00 0.00 533.00
                    L0.00 498.00
                    C0.00 498.00 0.00 480.00 115.00 480.00
                    C115.00 480.00 230.00 480.00 230.00 498.00
                    L230.00 533.00
                    C230.00 550.00 115.00 550.00 115.00 550.00
                    Z
                    "
                transform="
                    translate(0.5 0.5)
                    rotate(90 115.00 515.00)
                    "
                fill="rgb(34, 6, 159)"
                stroke-width="1.00"
                stroke-linecap="butt"
                stroke-linejoin="round"
                stroke="rgb(0, 0, 0)"
                />
            <path
                d="
                    M144.87 596.32
                    C138.04 641.23 126.96 641.23 120.13 596.32
                    C113.29 551.41 113.29 478.59 120.13 433.68
                    C126.96 388.77 138.04 388.77 144.87 433.68
                    C151.71 478.59 151.71 551.41 144.87 596.32
                    "
                fill="none"
                transform="translate(0.5 0.5)"
                stroke-width="1.00"
                stroke-linecap="butt"
                stroke-linejoin="round"
                stroke="rgb(0, 0, 0)"
                />
            
        </g>
        
        
        <!-- ** Connector Swoosh copy copy *************** -->
        
        <g>
            <path
                d="
                    M140.00 500.00
                    L240.00 500.00
                    L240.00 534.00
                    C240.00 534.00 228.00 527.00 215.00 527.00
                    C203.00 527.00 190.00 534.00 190.00 534.00
                    C190.00 534.00 178.00 540.00 165.00 540.00
                    C153.00 540.00 140.00 534.00 140.00 534.00
                    Z
                    "
                transform="
                    translate(0.5 0.5)
                    rotate(90 190.00 520.00)
                    "
                fill="rgb(34, 6, 159)"
                stroke-width="1.00"
                stroke-linecap="butt"
                stroke-linejoin="round"
                stroke="rgb(0, 0, 0)"
                />
            
        </g>
        
        
        <!-- ** Cylinder *************** -->
        
        <g>
            <path
                d="
                    M235.00 550.00
                    C235.00 550.00 120.00 550.00 120.00 533.00
                    L120.00 498.00
                    C120.00 498.00 120.00 480.00 235.00 480.00
                    C235.00 480.00 350.00 480.00 350.00 498.00
                    L350.00 533.00
                    C350.00 550.00 235.00 550.00 235.00 550.00
                    Z
                    "
                transform="
                    translate(0.5 0.5)
                    rotate(90 235.00 515.00)
                    "
                fill="rgb(34, 6, 159)"
                stroke-width="1.00"
                stroke-linecap="butt"
                stroke-linejoin="round"
                stroke="rgb(0, 0, 0)"
                />
            <path
                d="
                    M264.87 596.32
                    C258.04 641.23 246.96 641.23 240.13 596.32
                    C233.29 551.41 233.29 478.59 240.13 433.68
                    C246.96 388.77 258.04 388.77 264.87 433.68
                    C271.71 478.59 271.71 551.41 264.87 596.32
                    "
                fill="none"
                transform="translate(0.5 0.5)"
                stroke-width="1.00"
                stroke-linecap="butt"
                stroke-linejoin="round"
                stroke="rgb(0, 0, 0)"
                />
            
        </g>
        
        
        <!-- ** Cylinder *************** -->
        
        <g>
            <path
                d="
                    M270.00 470.00
                    C270.00 470.00 250.00 470.00 250.00 461.00
                    L250.00 429.00
                    C250.00 429.00 250.00 420.00 270.00 420.00
                    C270.00 420.00 290.00 420.00 290.00 429.00
                    L290.00 461.00
                    C290.00 470.00 270.00 470.00 270.00 470.00
                    Z
                    "
                transform="
                    translate(0.5 0.5)
                    rotate(90 270.00 445.00)
                    "
                fill="rgb(34, 6, 159)"
                stroke-width="1.00"
                stroke-linecap="butt"
                stroke-linejoin="round"
                stroke="rgb(0, 0, 0)"
                />
            <path
                d="
                    M292.51 459.14
                    C289.19 466.95 283.81 466.95 280.49 459.14
                    C277.17 451.33 277.17 438.67 280.49 430.86
                    C283.81 423.05 289.19 423.05 292.51 430.86
                    C295.83 438.67 295.83 451.33 292.51 459.14
                    "
                fill="none"
                transform="translate(0.5 0.5)"
                stroke-width="1.00"
                stroke-linecap="butt"
                stroke-linejoin="round"
                stroke="rgb(0, 0, 0)"
                />
            
        </g>
        
        
        <!-- ** Cylinder *************** -->
        
        <g>
            <path
                d="
                    M270.00 600.00
                    C270.00 600.00 250.00 600.00 250.00 591.00
                    L250.00 559.00
                    C250.00 559.00 250.00 550.00 270.00 550.00
                    C270.00 550.00 290.00 550.00 290.00 559.00
                    L290.00 591.00
                    C290.00 600.00 270.00 600.00 270.00 600.00
                    Z
                    "
                transform="
                    translate(0.5 0.5)
                    rotate(90 270.00 575.00)
                    "
                fill="rgb(34, 6, 159)"
                stroke-width="1.00"
                stroke-linecap="butt"
                stroke-linejoin="round"
                stroke="rgb(0, 0, 0)"
                />
            <path
                d="
                    M292.51 589.14
                    C289.19 596.95 283.81 596.95 280.49 589.14
                    C277.17 581.33 277.17 568.67 280.49 560.86
                    C283.81 553.05 289.19 553.05 292.51 560.86
                    C295.83 568.67 295.83 581.33 292.51 589.14
                    "
                fill="none"
                transform="translate(0.5 0.5)"
                stroke-width="1.00"
                stroke-linecap="butt"
                stroke-linejoin="round"
                stroke="rgb(0, 0, 0)"
                />
            
        </g>
        
        
        <!-- ** Connector Swoosh copy copy *************** -->
        
        <g>
            <path
                d="
                    M100.00 500.00
                    L200.00 500.00
                    L200.00 534.00
                    C200.00 534.00 188.00 527.00 175.00 527.00
                    C163.00 527.00 150.00 534.00 150.00 534.00
                    C150.00 534.00 138.00 540.00 125.00 540.00
                    C113.00 540.00 100.00 534.00 100.00 534.00
                    Z
                    "
                transform="
                    translate(0.5 0.5)
                    rotate(270 150.00 520.00)
                    "
                fill="rgb(34, 6, 159)"
                stroke-width="1.00"
                stroke-linecap="butt"
                stroke-linejoin="round"
                stroke="rgb(0, 0, 0)"
                />
            
        </g>
        
        
        <!-- ** Smart Path *************** -->
        
        <g>
            <path
                d="
                    M740.00 1100.00
                    C740.00 1100.00 740.49 1222.95 740.00 1230.00
                    C739.51 1237.05 737.07 1239.75 730.00 1240.00
                    C722.93 1240.25 357.07 1240.25 350.00 1240.00
                    C342.93 1239.88 340.00 1237.07 340.00 1230.00
                    C339.88 1222.93 340.00 597.07 340.00 590.00
                    C339.88 582.93 336.92 581.47 330.00 580.00
                    C323.06 578.65 290.00 580.00 290.00 580.00
                    "
                transform="
                    translate(0.5 0.5)
                    "
                fill="none"
                stroke-width="8.00"
                stroke-linecap="butt"
                stroke-linejoin="round"
                stroke="rgb(179, 179, 179)"
                />
            
        </g>
        
        
        <!-- ** Smart Path *************** -->
        
        <g>
            <path
                d="
                    M790.00 1100.00
                    C790.00 1100.00 790.37 1252.94 790.00 1260.00
                    C789.63 1267.06 786.98 1268.89 780.00 1270.00
                    C773.02 1271.11 726.98 1268.89 720.00 1270.00
                    C713.02 1271.11 711.35 1273.06 710.00 1280.00
                    C708.65 1286.94 710.00 1320.00 710.00 1320.00
                    "
                transform="
                    translate(0.5 0.5)
                    "
                fill="none"
                stroke-width="8.00"
                stroke-linecap="butt"
                stroke-linejoin="round"
                stroke="rgb(179, 179, 179)"
                />
            
        </g>
        
        
        <!-- ** Smart Path *************** -->
        
        <g>
            <path
                d="
                    M940.00 1070.00
                    C940.00 1070.00 1162.94 1070.37 1170.00 1070.00
                    C1177.06 1069.63 1180.00 1067.07 1180.00 1060.00
                    C1180.00 1052.93 1180.00 257.07 1180.00 250.00
                    C1180.00 242.93 1182.93 240.25 1190.00 240.00
                    C1197.07 239.75 1490.00 240.00 1490.00 240.00
                    "
                transform="
                    translate(0.5 0.5)
                    "
                fill="none"
                stroke-width="8.00"
                stroke-linecap="butt"
                stroke-linejoin="round"
                stroke="rgb(179, 179, 179)"
                />
            
        </g>
        
        
        <!-- ** Smart Path *************** -->
        
        <g>
            <path
                d="
                    M1490.00 200.00
                    C1490.00 200.00 1161.15 199.22 1150.00 200.00
                    C1138.85 200.78 1140.20 208.82 1140.00 220.00
                    C1139.80 231.18 1140.12 612.93 1140.00 620.00
                    C1139.88 627.07 1137.06 629.63 1130.00 630.00
                    C1122.94 630.37 940.00 630.00 940.00 630.00
                    "
                transform="
                    translate(0.5 0.5)
                    "
                fill="none"
                stroke-width="6.00"
                stroke-linecap="butt"
                stroke-linejoin="round"
                stroke="rgb(0, 0, 0)"
                />
            
        </g>
        
        
        <!-- ** Smart Path *************** -->
        
        <g>
            <path
                d="
                    M840.00 1100.00
                    C840.00 1100.00 839.51 1252.95 840.00 1260.00
                    C840.49 1267.05 842.94 1269.63 850.00 1270.00
                    C857.06 1270.37 1002.94 1269.63 1010.00 1270.00
                    C1017.06 1270.37 1017.70 1273.31 1020.00 1280.00
                    C1022.30 1286.69 1020.00 1300.00 1020.00 1300.00
                    "
                transform="
                    translate(0.5 0.5)
                    "
                fill="none"
                stroke-width="8.00"
                stroke-linecap="butt"
                stroke-linejoin="round"
                stroke="rgb(179, 179, 179)"
                />
            
        </g>
        
        
        <!-- ** Line *************** -->
        
        <g>
            <path
                d="
                    M940.00 790.00
                    L1040.00 790.00
                    "
                transform="
                    translate(0.5 0.5)
                    "
                fill="none"
                stroke-width="6.00"
                stroke-linecap="butt"
                stroke-linejoin="round"
                stroke="rgb(0, 0, 0)"
                />
            
        </g>
        
        
        <!-- ** Smart Path *************** -->
        
        <g>
            <path
                d="
                    M890.00 1100.00
                    C890.00 1100.00 889.38 1222.96 890.00 1230.00
                    C890.62 1237.04 892.93 1239.88 900.00 1240.00
                    C907.07 1240.12 1242.93 1240.25 1250.00 1240.00
                    C1257.07 1239.75 1260.00 1237.07 1260.00 1230.00
                    C1260.00 1222.93 1261.00 599.43 1261.00 592.00
                    C1261.00 584.57 1263.70 582.42 1271.00 581.00
                    C1278.30 579.58 1321.00 581.00 1321.00 581.00
                    "
                transform="
                    translate(0.5 0.5)
                    "
                fill="none"
                stroke-width="8.00"
                stroke-linecap="butt"
                stroke-linejoin="round"
                stroke="rgb(179, 179, 179)"
                />
            
        </g>
        
        
        <!-- ** Cylinder *************** -->
        
        <g>
            <path
                d="
                    M860.00 1510.00
                    C860.00 1510.00 840.00 1510.00 840.00 1501.00
                    L840.00 1469.00
                    C840.00 1469.00 840.00 1460.00 860.00 1460.00
                    C860.00 1460.00 880.00 1460.00 880.00 1469.00
                    L880.00 1501.00
                    C880.00 1510.00 860.00 1510.00 860.00 1510.00
                    Z
                    "
                transform="
                    translate(0.5 0.5)
                    rotate(90 860.00 1485.00)
                    "
                fill="rgb(34, 6, 159)"
                stroke-width="1.00"
                stroke-linecap="butt"
                stroke-linejoin="round"
                stroke="rgb(0, 0, 0)"
                />
            <path
                d="
                    M882.51 1499.14
                    C879.19 1506.95 873.81 1506.95 870.49 1499.14
                    C867.17 1491.33 867.17 1478.67 870.49 1470.86
                    C873.81 1463.05 879.19 1463.05 882.51 1470.86
                    C885.83 1478.67 885.83 1491.33 882.51 1499.14
                    "
                fill="none"
                transform="translate(0.5 0.5)"
                stroke-width="1.00"
                stroke-linecap="butt"
                stroke-linejoin="round"
                stroke="rgb(0, 0, 0)"
                />
            
        </g>
        
        
        <!-- ** Cylinder *************** -->
        
        <g>
            <path
                d="
                    M860.00 1380.00
                    C860.00 1380.00 840.00 1380.00 840.00 1371.00
                    L840.00 1339.00
                    C840.00 1339.00 840.00 1330.00 860.00 1330.00
                    C860.00 1330.00 880.00 1330.00 880.00 1339.00
                    L880.00 1371.00
                    C880.00 1380.00 860.00 1380.00 860.00 1380.00
                    Z
                    "
                transform="
                    translate(0.5 0.5)
                    rotate(90 860.00 1355.00)
                    "
                fill="rgb(34, 6, 159)"
                stroke-width="1.00"
                stroke-linecap="butt"
                stroke-linejoin="round"
                stroke="rgb(0, 0, 0)"
                />
            <path
                d="
                    M882.51 1369.14
                    C879.19 1376.95 873.81 1376.95 870.49 1369.14
                    C867.17 1361.33 867.17 1348.67 870.49 1340.86
                    C873.81 1333.05 879.19 1333.05 882.51 1340.86
                    C885.83 1348.67 885.83 1361.33 882.51 1369.14
                    "
                fill="none"
                transform="translate(0.5 0.5)"
                stroke-width="1.00"
                stroke-linecap="butt"
                stroke-linejoin="round"
                stroke="rgb(0, 0, 0)"
                />
            
        </g>
        
        
        <!-- ** Cylinder *************** -->
        
        <g>
            <path
                d="
                    M895.00 1460.00
                    C895.00 1460.00 780.00 1460.00 780.00 1443.00
                    L780.00 1408.00
                    C780.00 1408.00 780.00 1390.00 895.00 1390.00
                    C895.00 1390.00 1010.00 1390.00 1010.00 1408.00
                    L1010.00 1443.00
                    C1010.00 1460.00 895.00 1460.00 895.00 1460.00
                    Z
                    "
                transform="
                    translate(0.5 0.5)
                    rotate(90 895.00 1425.00)
                    "
                fill="rgb(34, 6, 159)"
                stroke-width="1.00"
                stroke-linecap="butt"
                stroke-linejoin="round"
                stroke="rgb(0, 0, 0)"
                />
            <path
                d="
                    M924.87 1506.32
                    C918.04 1551.23 906.96 1551.23 900.13 1506.32
                    C893.29 1461.41 893.29 1388.59 900.13 1343.68
                    C906.96 1298.77 918.04 1298.77 924.87 1343.68
                    C931.71 1388.59 931.71 1461.41 924.87 1506.32
                    "
                fill="none"
                transform="translate(0.5 0.5)"
                stroke-width="1.00"
                stroke-linecap="butt"
                stroke-linejoin="round"
                stroke="rgb(0, 0, 0)"
                />
            
        </g>
        
        
        <!-- ** Connector Swoosh copy *************** -->
        
        <g>
            <path
                d="
                    M920.00 1410.00
                    L1020.00 1410.00
                    L1020.00 1444.00
                    C1020.00 1444.00 1008.00 1437.00 995.00 1437.00
                    C983.00 1437.00 970.00 1444.00 970.00 1444.00
                    C970.00 1444.00 958.00 1450.00 945.00 1450.00
                    C933.00 1450.00 920.00 1444.00 920.00 1444.00
                    Z
                    "
                transform="
                    translate(0.5 0.5)
                    rotate(90 970.00 1430.00)
                    "
                fill="rgb(34, 6, 159)"
                stroke-width="1.00"
                stroke-linecap="butt"
                stroke-linejoin="round"
                stroke="rgb(0, 0, 0)"
                />
            
        </g>
        
        
        <!-- ** Cylinder *************** -->
        
        <g>
            <path
                d="
                    M1015.00 1460.00
                    C1015.00 1460.00 900.00 1460.00 900.00 1443.00
                    L900.00 1408.00
                    C900.00 1408.00 900.00 1390.00 1015.00 1390.00
                    C1015.00 1390.00 1130.00 1390.00 1130.00 1408.00
                    L1130.00 1443.00
                    C1130.00 1460.00 1015.00 1460.00 1015.00 1460.00
                    Z
                    "
                transform="
                    translate(0.5 0.5)
                    rotate(90 1015.00 1425.00)
                    "
                fill="rgb(34, 6, 159)"
                stroke-width="1.00"
                stroke-linecap="butt"
                stroke-linejoin="round"
                stroke="rgb(0, 0, 0)"
                />
            <path
                d="
                    M1044.87 1506.32
                    C1038.04 1551.23 1026.96 1551.23 1020.13 1506.32
                    C1013.29 1461.41 1013.29 1388.59 1020.13 1343.68
                    C1026.96 1298.77 1038.04 1298.77 1044.87 1343.68
                    C1051.71 1388.59 1051.71 1461.41 1044.87 1506.32
                    "
                fill="none"
                transform="translate(0.5 0.5)"
                stroke-width="1.00"
                stroke-linecap="butt"
                stroke-linejoin="round"
                stroke="rgb(0, 0, 0)"
                />
            
        </g>
        
        
        <!-- ** Cylinder *************** -->
        
        <g>
            <path
                d="
                    M1050.00 1380.00
                    C1050.00 1380.00 1030.00 1380.00 1030.00 1371.00
                    L1030.00 1339.00
                    C1030.00 1339.00 1030.00 1330.00 1050.00 1330.00
                    C1050.00 1330.00 1070.00 1330.00 1070.00 1339.00
                    L1070.00 1371.00
                    C1070.00 1380.00 1050.00 1380.00 1050.00 1380.00
                    Z
                    "
                transform="
                    translate(0.5 0.5)
                    rotate(90 1050.00 1355.00)
                    "
                fill="rgb(34, 6, 159)"
                stroke-width="1.00"
                stroke-linecap="butt"
                stroke-linejoin="round"
                stroke="rgb(0, 0, 0)"
                />
            <path
                d="
                    M1072.51 1369.14
                    C1069.19 1376.95 1063.81 1376.95 1060.49 1369.14
                    C1057.17 1361.33 1057.17 1348.67 1060.49 1340.86
                    C1063.81 1333.05 1069.19 1333.05 1072.51 1340.86
                    C1075.83 1348.67 1075.83 1361.33 1072.51 1369.14
                    "
                fill="none"
                transform="translate(0.5 0.5)"
                stroke-width="1.00"
                stroke-linecap="butt"
                stroke-linejoin="round"
                stroke="rgb(0, 0, 0)"
                />
            
        </g>
        
        
        <!-- ** Cylinder *************** -->
        
        <g>
            <path
                d="
                    M1050.00 1510.00
                    C1050.00 1510.00 1030.00 1510.00 1030.00 1501.00
                    L1030.00 1469.00
                    C1030.00 1469.00 1030.00 1460.00 1050.00 1460.00
                    C1050.00 1460.00 1070.00 1460.00 1070.00 1469.00
                    L1070.00 1501.00
                    C1070.00 1510.00 1050.00 1510.00 1050.00 1510.00
                    Z
                    "
                transform="
                    translate(0.5 0.5)
                    rotate(90 1050.00 1485.00)
                    "
                fill="rgb(34, 6, 159)"
                stroke-width="1.00"
                stroke-linecap="butt"
                stroke-linejoin="round"
                stroke="rgb(0, 0, 0)"
                />
            <path
                d="
                    M1072.51 1499.14
                    C1069.19 1506.95 1063.81 1506.95 1060.49 1499.14
                    C1057.17 1491.33 1057.17 1478.67 1060.49 1470.86
                    C1063.81 1463.05 1069.19 1463.05 1072.51 1470.86
                    C1075.83 1478.67 1075.83 1491.33 1072.51 1499.14
                    "
                fill="none"
                transform="translate(0.5 0.5)"
                stroke-width="1.00"
                stroke-linecap="butt"
                stroke-linejoin="round"
                stroke="rgb(0, 0, 0)"
                />
            
        </g>
        
        
        <!-- ** Connector Swoosh copy *************** -->
        
        <g>
            <path
                d="
                    M880.00 1410.00
                    L980.00 1410.00
                    L980.00 1444.00
                    C980.00 1444.00 968.00 1437.00 955.00 1437.00
                    C943.00 1437.00 930.00 1444.00 930.00 1444.00
                    C930.00 1444.00 918.00 1450.00 905.00 1450.00
                    C893.00 1450.00 880.00 1444.00 880.00 1444.00
                    Z
                    "
                transform="
                    translate(0.5 0.5)
                    rotate(270 930.00 1430.00)
                    "
                fill="rgb(34, 6, 159)"
                stroke-width="1.00"
                stroke-linecap="butt"
                stroke-linejoin="round"
                stroke="rgb(0, 0, 0)"
                />
            
        </g>
        
        
        <!-- ** Cylinder *************** -->
        
        <g>
            <path
                d="
                    M1330.00 600.00
                    C1330.00 600.00 1310.00 600.00 1310.00 591.00
                    L1310.00 559.00
                    C1310.00 559.00 1310.00 550.00 1330.00 550.00
                    C1330.00 550.00 1350.00 550.00 1350.00 559.00
                    L1350.00 591.00
                    C1350.00 600.00 1330.00 600.00 1330.00 600.00
                    Z
                    "
                transform="
                    translate(0.5 0.5)
                    rotate(90 1330.00 575.00)
                    "
                fill="rgb(34, 6, 159)"
                stroke-width="1.00"
                stroke-linecap="butt"
                stroke-linejoin="round"
                stroke="rgb(0, 0, 0)"
                />
            <path
                d="
                    M1352.51 589.14
                    C1349.19 596.95 1343.81 596.95 1340.49 589.14
                    C1337.17 581.33 1337.17 568.67 1340.49 560.86
                    C1343.81 553.05 1349.19 553.05 1352.51 560.86
                    C1355.83 568.67 1355.83 581.33 1352.51 589.14
                    "
                fill="none"
                transform="translate(0.5 0.5)"
                stroke-width="1.00"
                stroke-linecap="butt"
                stroke-linejoin="round"
                stroke="rgb(0, 0, 0)"
                />
            
        </g>
        
        
        <!-- ** Cylinder *************** -->
        
        <g>
            <path
                d="
                    M1330.00 470.00
                    C1330.00 470.00 1310.00 470.00 1310.00 461.00
                    L1310.00 429.00
                    C1310.00 429.00 1310.00 420.00 1330.00 420.00
                    C1330.00 420.00 1350.00 420.00 1350.00 429.00
                    L1350.00 461.00
                    C1350.00 470.00 1330.00 470.00 1330.00 470.00
                    Z
                    "
                transform="
                    translate(0.5 0.5)
                    rotate(90 1330.00 445.00)
                    "
                fill="rgb(34, 6, 159)"
                stroke-width="1.00"
                stroke-linecap="butt"
                stroke-linejoin="round"
                stroke="rgb(0, 0, 0)"
                />
            <path
                d="
                    M1352.51 459.14
                    C1349.19 466.95 1343.81 466.95 1340.49 459.14
                    C1337.17 451.33 1337.17 438.67 1340.49 430.86
                    C1343.81 423.05 1349.19 423.05 1352.51 430.86
                    C1355.83 438.67 1355.83 451.33 1352.51 459.14
                    "
                fill="none"
                transform="translate(0.5 0.5)"
                stroke-width="1.00"
                stroke-linecap="butt"
                stroke-linejoin="round"
                stroke="rgb(0, 0, 0)"
                />
            
        </g>
        
        
        <!-- ** Cylinder *************** -->
        
        <g>
            <path
                d="
                    M1365.00 550.00
                    C1365.00 550.00 1250.00 550.00 1250.00 533.00
                    L1250.00 498.00
                    C1250.00 498.00 1250.00 480.00 1365.00 480.00
                    C1365.00 480.00 1480.00 480.00 1480.00 498.00
                    L1480.00 533.00
                    C1480.00 550.00 1365.00 550.00 1365.00 550.00
                    Z
                    "
                transform="
                    translate(0.5 0.5)
                    rotate(90 1365.00 515.00)
                    "
                fill="rgb(34, 6, 159)"
                stroke-width="1.00"
                stroke-linecap="butt"
                stroke-linejoin="round"
                stroke="rgb(0, 0, 0)"
                />
            <path
                d="
                    M1394.87 596.32
                    C1388.04 641.23 1376.96 641.23 1370.13 596.32
                    C1363.29 551.41 1363.29 478.59 1370.13 433.68
                    C1376.96 388.77 1388.04 388.77 1394.87 433.68
                    C1401.71 478.59 1401.71 551.41 1394.87 596.32
                    "
                fill="none"
                transform="translate(0.5 0.5)"
                stroke-width="1.00"
                stroke-linecap="butt"
                stroke-linejoin="round"
                stroke="rgb(0, 0, 0)"
                />
            
        </g>
        
        
        <!-- ** Connector Swoosh copy copy copy *************** -->
        
        <g>
            <path
                d="
                    M1390.00 500.00
                    L1490.00 500.00
                    L1490.00 534.00
                    C1490.00 534.00 1478.00 527.00 1465.00 527.00
                    C1453.00 527.00 1440.00 534.00 1440.00 534.00
                    C1440.00 534.00 1428.00 540.00 1415.00 540.00
                    C1403.00 540.00 1390.00 534.00 1390.00 534.00
                    Z
                    "
                transform="
                    translate(0.5 0.5)
                    rotate(90 1440.00 520.00)
                    "
                fill="rgb(34, 6, 159)"
                stroke-width="1.00"
                stroke-linecap="butt"
                stroke-linejoin="round"
                stroke="rgb(0, 0, 0)"
                />
            
        </g>
        
        
        <!-- ** Cylinder *************** -->
        
        <g>
            <path
                d="
                    M1485.00 550.00
                    C1485.00 550.00 1370.00 550.00 1370.00 533.00
                    L1370.00 498.00
                    C1370.00 498.00 1370.00 480.00 1485.00 480.00
                    C1485.00 480.00 1600.00 480.00 1600.00 498.00
                    L1600.00 533.00
                    C1600.00 550.00 1485.00 550.00 1485.00 550.00
                    Z
                    "
                transform="
                    translate(0.5 0.5)
                    rotate(90 1485.00 515.00)
                    "
                fill="rgb(34, 6, 159)"
                stroke-width="1.00"
                stroke-linecap="butt"
                stroke-linejoin="round"
                stroke="rgb(0, 0, 0)"
                />
            <path
                d="
                    M1514.87 596.32
                    C1508.04 641.23 1496.96 641.23 1490.13 596.32
                    C1483.29 551.41 1483.29 478.59 1490.13 433.68
                    C1496.96 388.77 1508.04 388.77 1514.87 433.68
                    C1521.71 478.59 1521.71 551.41 1514.87 596.32
                    "
                fill="none"
                transform="translate(0.5 0.5)"
                stroke-width="1.00"
                stroke-linecap="butt"
                stroke-linejoin="round"
                stroke="rgb(0, 0, 0)"
                />
            
        </g>
        
        
        <!-- ** Cylinder *************** -->
        
        <g>
            <path
                d="
                    M1520.00 470.00
                    C1520.00 470.00 1500.00 470.00 1500.00 461.00
                    L1500.00 429.00
                    C1500.00 429.00 1500.00 420.00 1520.00 420.00
                    C1520.00 420.00 1540.00 420.00 1540.00 429.00
                    L1540.00 461.00
                    C1540.00 470.00 1520.00 470.00 1520.00 470.00
                    Z
                    "
                transform="
                    translate(0.5 0.5)
                    rotate(90 1520.00 445.00)
                    "
                fill="rgb(34, 6, 159)"
                stroke-width="1.00"
                stroke-linecap="butt"
                stroke-linejoin="round"
                stroke="rgb(0, 0, 0)"
                />
            <path
                d="
                    M1542.51 459.14
                    C1539.19 466.95 1533.81 466.95 1530.49 459.14
                    C1527.17 451.33 1527.17 438.67 1530.49 430.86
                    C1533.81 423.05 1539.19 423.05 1542.51 430.86
                    C1545.83 438.67 1545.83 451.33 1542.51 459.14
                    "
                fill="none"
                transform="translate(0.5 0.5)"
                stroke-width="1.00"
                stroke-linecap="butt"
                stroke-linejoin="round"
                stroke="rgb(0, 0, 0)"
                />
            
        </g>
        
        
        <!-- ** Cylinder *************** -->
        
        <g>
            <path
                d="
                    M1520.00 600.00
                    C1520.00 600.00 1500.00 600.00 1500.00 591.00
                    L1500.00 559.00
                    C1500.00 559.00 1500.00 550.00 1520.00 550.00
                    C1520.00 550.00 1540.00 550.00 1540.00 559.00
                    L1540.00 591.00
                    C1540.00 600.00 1520.00 600.00 1520.00 600.00
                    Z
                    "
                transform="
                    translate(0.5 0.5)
                    rotate(90 1520.00 575.00)
                    "
                fill="rgb(34, 6, 159)"
                stroke-width="1.00"
                stroke-linecap="butt"
                stroke-linejoin="round"
                stroke="rgb(0, 0, 0)"
                />
            <path
                d="
                    M1542.51 589.14
                    C1539.19 596.95 1533.81 596.95 1530.49 589.14
                    C1527.17 581.33 1527.17 568.67 1530.49 560.86
                    C1533.81 553.05 1539.19 553.05 1542.51 560.86
                    C1545.83 568.67 1545.83 581.33 1542.51 589.14
                    "
                fill="none"
                transform="translate(0.5 0.5)"
                stroke-width="1.00"
                stroke-linecap="butt"
                stroke-linejoin="round"
                stroke="rgb(0, 0, 0)"
                />
            
        </g>
        
        
        <!-- ** Connector Swoosh copy copy copy *************** -->
        
        <g>
            <path
                d="
                    M1350.00 500.00
                    L1450.00 500.00
                    L1450.00 534.00
                    C1450.00 534.00 1438.00 527.00 1425.00 527.00
                    C1413.00 527.00 1400.00 534.00 1400.00 534.00
                    C1400.00 534.00 1388.00 540.00 1375.00 540.00
                    C1363.00 540.00 1350.00 534.00 1350.00 534.00
                    Z
                    "
                transform="
                    translate(0.5 0.5)
                    rotate(270 1400.00 520.00)
                    "
                fill="rgb(34, 6, 159)"
                stroke-width="1.00"
                stroke-linecap="butt"
                stroke-linejoin="round"
                stroke="rgb(0, 0, 0)"
                />
            
        </g>
        
        
        <!-- ** Cylinder *************** -->
        
        <g>
            <path
                d="
                    M550.00 1510.00
                    C550.00 1510.00 530.00 1510.00 530.00 1501.00
                    L530.00 1469.00
                    C530.00 1469.00 530.00 1460.00 550.00 1460.00
                    C550.00 1460.00 570.00 1460.00 570.00 1469.00
                    L570.00 1501.00
                    C570.00 1510.00 550.00 1510.00 550.00 1510.00
                    Z
                    "
                transform="
                    translate(0.5 0.5)
                    rotate(90 550.00 1485.00)
                    "
                fill="rgb(34, 6, 159)"
                stroke-width="1.00"
                stroke-linecap="butt"
                stroke-linejoin="round"
                stroke="rgb(0, 0, 0)"
                />
            <path
                d="
                    M572.51 1499.14
                    C569.19 1506.95 563.81 1506.95 560.49 1499.14
                    C557.17 1491.33 557.17 1478.67 560.49 1470.86
                    C563.81 1463.05 569.19 1463.05 572.51 1470.86
                    C575.83 1478.67 575.83 1491.33 572.51 1499.14
                    "
                fill="none"
                transform="translate(0.5 0.5)"
                stroke-width="1.00"
                stroke-linecap="butt"
                stroke-linejoin="round"
                stroke="rgb(0, 0, 0)"
                />
            
        </g>
        
        
        <!-- ** Cylinder *************** -->
        
        <g>
            <path
                d="
                    M550.00 1380.00
                    C550.00 1380.00 530.00 1380.00 530.00 1371.00
                    L530.00 1339.00
                    C530.00 1339.00 530.00 1330.00 550.00 1330.00
                    C550.00 1330.00 570.00 1330.00 570.00 1339.00
                    L570.00 1371.00
                    C570.00 1380.00 550.00 1380.00 550.00 1380.00
                    Z
                    "
                transform="
                    translate(0.5 0.5)
                    rotate(90 550.00 1355.00)
                    "
                fill="rgb(34, 6, 159)"
                stroke-width="1.00"
                stroke-linecap="butt"
                stroke-linejoin="round"
                stroke="rgb(0, 0, 0)"
                />
            <path
                d="
                    M572.51 1369.14
                    C569.19 1376.95 563.81 1376.95 560.49 1369.14
                    C557.17 1361.33 557.17 1348.67 560.49 1340.86
                    C563.81 1333.05 569.19 1333.05 572.51 1340.86
                    C575.83 1348.67 575.83 1361.33 572.51 1369.14
                    "
                fill="none"
                transform="translate(0.5 0.5)"
                stroke-width="1.00"
                stroke-linecap="butt"
                stroke-linejoin="round"
                stroke="rgb(0, 0, 0)"
                />
            
        </g>
        
        
        <!-- ** Cylinder *************** -->
        
        <g>
            <path
                d="
                    M585.00 1460.00
                    C585.00 1460.00 470.00 1460.00 470.00 1443.00
                    L470.00 1408.00
                    C470.00 1408.00 470.00 1390.00 585.00 1390.00
                    C585.00 1390.00 700.00 1390.00 700.00 1408.00
                    L700.00 1443.00
                    C700.00 1460.00 585.00 1460.00 585.00 1460.00
                    Z
                    "
                transform="
                    translate(0.5 0.5)
                    rotate(90 585.00 1425.00)
                    "
                fill="rgb(34, 6, 159)"
                stroke-width="1.00"
                stroke-linecap="butt"
                stroke-linejoin="round"
                stroke="rgb(0, 0, 0)"
                />
            <path
                d="
                    M614.87 1506.32
                    C608.04 1551.23 596.96 1551.23 590.13 1506.32
                    C583.29 1461.41 583.29 1388.59 590.13 1343.68
                    C596.96 1298.77 608.04 1298.77 614.87 1343.68
                    C621.71 1388.59 621.71 1461.41 614.87 1506.32
                    "
                fill="none"
                transform="translate(0.5 0.5)"
                stroke-width="1.00"
                stroke-linecap="butt"
                stroke-linejoin="round"
                stroke="rgb(0, 0, 0)"
                />
            
        </g>
        
        
        <!-- ** Connector Swoosh copy copy copy *************** -->
        
        <g>
            <path
                d="
                    M610.00 1410.00
                    L710.00 1410.00
                    L710.00 1444.00
                    C710.00 1444.00 698.00 1437.00 685.00 1437.00
                    C673.00 1437.00 660.00 1444.00 660.00 1444.00
                    C660.00 1444.00 648.00 1450.00 635.00 1450.00
                    C623.00 1450.00 610.00 1444.00 610.00 1444.00
                    Z
                    "
                transform="
                    translate(0.5 0.5)
                    rotate(90 660.00 1430.00)
                    "
                fill="rgb(34, 6, 159)"
                stroke-width="1.00"
                stroke-linecap="butt"
                stroke-linejoin="round"
                stroke="rgb(0, 0, 0)"
                />
            
        </g>
        
        
        <!-- ** Cylinder *************** -->
        
        <g>
            <path
                d="
                    M705.00 1460.00
                    C705.00 1460.00 590.00 1460.00 590.00 1443.00
                    L590.00 1408.00
                    C590.00 1408.00 590.00 1390.00 705.00 1390.00
                    C705.00 1390.00 820.00 1390.00 820.00 1408.00
                    L820.00 1443.00
                    C820.00 1460.00 705.00 1460.00 705.00 1460.00
                    Z
                    "
                transform="
                    translate(0.5 0.5)
                    rotate(90 705.00 1425.00)
                    "
                fill="rgb(34, 6, 159)"
                stroke-width="1.00"
                stroke-linecap="butt"
                stroke-linejoin="round"
                stroke="rgb(0, 0, 0)"
                />
            <path
                d="
                    M734.87 1506.32
                    C728.04 1551.23 716.96 1551.23 710.13 1506.32
                    C703.29 1461.41 703.29 1388.59 710.13 1343.68
                    C716.96 1298.77 728.04 1298.77 734.87 1343.68
                    C741.71 1388.59 741.71 1461.41 734.87 1506.32
                    "
                fill="none"
                transform="translate(0.5 0.5)"
                stroke-width="1.00"
                stroke-linecap="butt"
                stroke-linejoin="round"
                stroke="rgb(0, 0, 0)"
                />
            
        </g>
        
        
        <!-- ** Cylinder *************** -->
        
        <g>
            <path
                d="
                    M740.00 1380.00
                    C740.00 1380.00 720.00 1380.00 720.00 1371.00
                    L720.00 1339.00
                    C720.00 1339.00 720.00 1330.00 740.00 1330.00
                    C740.00 1330.00 760.00 1330.00 760.00 1339.00
                    L760.00 1371.00
                    C760.00 1380.00 740.00 1380.00 740.00 1380.00
                    Z
                    "
                transform="
                    translate(0.5 0.5)
                    rotate(90 740.00 1355.00)
                    "
                fill="rgb(34, 6, 159)"
                stroke-width="1.00"
                stroke-linecap="butt"
                stroke-linejoin="round"
                stroke="rgb(0, 0, 0)"
                />
            <path
                d="
                    M762.51 1369.14
                    C759.19 1376.95 753.81 1376.95 750.49 1369.14
                    C747.17 1361.33 747.17 1348.67 750.49 1340.86
                    C753.81 1333.05 759.19 1333.05 762.51 1340.86
                    C765.83 1348.67 765.83 1361.33 762.51 1369.14
                    "
                fill="none"
                transform="translate(0.5 0.5)"
                stroke-width="1.00"
                stroke-linecap="butt"
                stroke-linejoin="round"
                stroke="rgb(0, 0, 0)"
                />
            
        </g>
        
        
        <!-- ** Cylinder *************** -->
        
        <g>
            <path
                d="
                    M740.00 1510.00
                    C740.00 1510.00 720.00 1510.00 720.00 1501.00
                    L720.00 1469.00
                    C720.00 1469.00 720.00 1460.00 740.00 1460.00
                    C740.00 1460.00 760.00 1460.00 760.00 1469.00
                    L760.00 1501.00
                    C760.00 1510.00 740.00 1510.00 740.00 1510.00
                    Z
                    "
                transform="
                    translate(0.5 0.5)
                    rotate(90 740.00 1485.00)
                    "
                fill="rgb(34, 6, 159)"
                stroke-width="1.00"
                stroke-linecap="butt"
                stroke-linejoin="round"
                stroke="rgb(0, 0, 0)"
                />
            <path
                d="
                    M762.51 1499.14
                    C759.19 1506.95 753.81 1506.95 750.49 1499.14
                    C747.17 1491.33 747.17 1478.67 750.49 1470.86
                    C753.81 1463.05 759.19 1463.05 762.51 1470.86
                    C765.83 1478.67 765.83 1491.33 762.51 1499.14
                    "
                fill="none"
                transform="translate(0.5 0.5)"
                stroke-width="1.00"
                stroke-linecap="butt"
                stroke-linejoin="round"
                stroke="rgb(0, 0, 0)"
                />
            
        </g>
        
        
        <!-- ** Connector Swoosh copy copy copy *************** -->
        
        <g>
            <path
                d="
                    M570.00 1410.00
                    L670.00 1410.00
                    L670.00 1444.00
                    C670.00 1444.00 658.00 1437.00 645.00 1437.00
                    C633.00 1437.00 620.00 1444.00 620.00 1444.00
                    C620.00 1444.00 608.00 1450.00 595.00 1450.00
                    C583.00 1450.00 570.00 1444.00 570.00 1444.00
                    Z
                    "
                transform="
                    translate(0.5 0.5)
                    rotate(270 620.00 1430.00)
                    "
                fill="rgb(34, 6, 159)"
                stroke-width="1.00"
                stroke-linecap="butt"
                stroke-linejoin="round"
                stroke="rgb(0, 0, 0)"
                />
            
        </g>
        
        
        <!-- ** Cylinder *************** -->
        
        <g>
            <path
                d="
                    M700.00 260.00
                    C700.00 260.00 680.00 260.00 680.00 251.00
                    L680.00 219.00
                    C680.00 219.00 680.00 210.00 700.00 210.00
                    C700.00 210.00 720.00 210.00 720.00 219.00
                    L720.00 251.00
                    C720.00 260.00 700.00 260.00 700.00 260.00
                    Z
                    "
                transform="
                    translate(0.5 0.5)
                    rotate(90 700.00 235.00)
                    "
                fill="rgb(34, 6, 159)"
                stroke-width="1.00"
                stroke-linecap="butt"
                stroke-linejoin="round"
                stroke="rgb(0, 0, 0)"
                />
            <path
                d="
                    M722.51 249.14
                    C719.19 256.95 713.81 256.95 710.49 249.14
                    C707.17 241.33 707.17 228.67 710.49 220.86
                    C713.81 213.05 719.19 213.05 722.51 220.86
                    C725.83 228.67 725.83 241.33 722.51 249.14
                    "
                fill="none"
                transform="translate(0.5 0.5)"
                stroke-width="1.00"
                stroke-linecap="butt"
                stroke-linejoin="round"
                stroke="rgb(0, 0, 0)"
                />
            
        </g>
        
        
        <!-- ** Cylinder *************** -->
        
        <g>
            <path
                d="
                    M700.00 130.00
                    C700.00 130.00 680.00 130.00 680.00 121.00
                    L680.00 89.00
                    C680.00 89.00 680.00 80.00 700.00 80.00
                    C700.00 80.00 720.00 80.00 720.00 89.00
                    L720.00 121.00
                    C720.00 130.00 700.00 130.00 700.00 130.00
                    Z
                    "
                transform="
                    translate(0.5 0.5)
                    rotate(90 700.00 105.00)
                    "
                fill="rgb(34, 6, 159)"
                stroke-width="1.00"
                stroke-linecap="butt"
                stroke-linejoin="round"
                stroke="rgb(0, 0, 0)"
                />
            <path
                d="
                    M722.51 119.14
                    C719.19 126.95 713.81 126.95 710.49 119.14
                    C707.17 111.33 707.17 98.67 710.49 90.86
                    C713.81 83.05 719.19 83.05 722.51 90.86
                    C725.83 98.67 725.83 111.33 722.51 119.14
                    "
                fill="none"
                transform="translate(0.5 0.5)"
                stroke-width="1.00"
                stroke-linecap="butt"
                stroke-linejoin="round"
                stroke="rgb(0, 0, 0)"
                />
            
        </g>
        
        
        <!-- ** Cylinder *************** -->
        
        <g>
            <path
                d="
                    M735.00 210.00
                    C735.00 210.00 620.00 210.00 620.00 193.00
                    L620.00 158.00
                    C620.00 158.00 620.00 140.00 735.00 140.00
                    C735.00 140.00 850.00 140.00 850.00 158.00
                    L850.00 193.00
                    C850.00 210.00 735.00 210.00 735.00 210.00
                    Z
                    "
                transform="
                    translate(0.5 0.5)
                    rotate(90 735.00 175.00)
                    "
                fill="rgb(34, 6, 159)"
                stroke-width="1.00"
                stroke-linecap="butt"
                stroke-linejoin="round"
                stroke="rgb(0, 0, 0)"
                />
            <path
                d="
                    M764.87 256.32
                    C758.04 301.23 746.96 301.23 740.13 256.32
                    C733.29 211.41 733.29 138.59 740.13 93.68
                    C746.96 48.77 758.04 48.77 764.87 93.68
                    C771.71 138.59 771.71 211.41 764.87 256.32
                    "
                fill="none"
                transform="translate(0.5 0.5)"
                stroke-width="1.00"
                stroke-linecap="butt"
                stroke-linejoin="round"
                stroke="rgb(0, 0, 0)"
                />
            
        </g>
        
        
        <!-- ** Connector Swoosh copy copy *************** -->
        
        <g>
            <path
                d="
                    M760.00 160.00
                    L860.00 160.00
                    L860.00 194.00
                    C860.00 194.00 848.00 187.00 835.00 187.00
                    C823.00 187.00 810.00 194.00 810.00 194.00
                    C810.00 194.00 798.00 200.00 785.00 200.00
                    C773.00 200.00 760.00 194.00 760.00 194.00
                    Z
                    "
                transform="
                    translate(0.5 0.5)
                    rotate(90 810.00 180.00)
                    "
                fill="rgb(34, 6, 159)"
                stroke-width="1.00"
                stroke-linecap="butt"
                stroke-linejoin="round"
                stroke="rgb(0, 0, 0)"
                />
            
        </g>
        
        
        <!-- ** Cylinder *************** -->
        
        <g>
            <path
                d="
                    M855.00 210.00
                    C855.00 210.00 740.00 210.00 740.00 193.00
                    L740.00 158.00
                    C740.00 158.00 740.00 140.00 855.00 140.00
                    C855.00 140.00 970.00 140.00 970.00 158.00
                    L970.00 193.00
                    C970.00 210.00 855.00 210.00 855.00 210.00
                    Z
                    "
                transform="
                    translate(0.5 0.5)
                    rotate(90 855.00 175.00)
                    "
                fill="rgb(34, 6, 159)"
                stroke-width="1.00"
                stroke-linecap="butt"
                stroke-linejoin="round"
                stroke="rgb(0, 0, 0)"
                />
            <path
                d="
                    M884.87 256.32
                    C878.04 301.23 866.96 301.23 860.13 256.32
                    C853.29 211.41 853.29 138.59 860.13 93.68
                    C866.96 48.77 878.04 48.77 884.87 93.68
                    C891.71 138.59 891.71 211.41 884.87 256.32
                    "
                fill="none"
                transform="translate(0.5 0.5)"
                stroke-width="1.00"
                stroke-linecap="butt"
                stroke-linejoin="round"
                stroke="rgb(0, 0, 0)"
                />
            
        </g>
        
        
        <!-- ** Cylinder *************** -->
        
        <g>
            <path
                d="
                    M890.00 130.00
                    C890.00 130.00 870.00 130.00 870.00 121.00
                    L870.00 89.00
                    C870.00 89.00 870.00 80.00 890.00 80.00
                    C890.00 80.00 910.00 80.00 910.00 89.00
                    L910.00 121.00
                    C910.00 130.00 890.00 130.00 890.00 130.00
                    Z
                    "
                transform="
                    translate(0.5 0.5)
                    rotate(90 890.00 105.00)
                    "
                fill="rgb(34, 6, 159)"
                stroke-width="1.00"
                stroke-linecap="butt"
                stroke-linejoin="round"
                stroke="rgb(0, 0, 0)"
                />
            <path
                d="
                    M912.51 119.14
                    C909.19 126.95 903.81 126.95 900.49 119.14
                    C897.17 111.33 897.17 98.67 900.49 90.86
                    C903.81 83.05 909.19 83.05 912.51 90.86
                    C915.83 98.67 915.83 111.33 912.51 119.14
                    "
                fill="none"
                transform="translate(0.5 0.5)"
                stroke-width="1.00"
                stroke-linecap="butt"
                stroke-linejoin="round"
                stroke="rgb(0, 0, 0)"
                />
            
        </g>
        
        
        <!-- ** Cylinder *************** -->
        
        <g>
            <path
                d="
                    M890.00 260.00
                    C890.00 260.00 870.00 260.00 870.00 251.00
                    L870.00 219.00
                    C870.00 219.00 870.00 210.00 890.00 210.00
                    C890.00 210.00 910.00 210.00 910.00 219.00
                    L910.00 251.00
                    C910.00 260.00 890.00 260.00 890.00 260.00
                    Z
                    "
                transform="
                    translate(0.5 0.5)
                    rotate(90 890.00 235.00)
                    "
                fill="rgb(34, 6, 159)"
                stroke-width="1.00"
                stroke-linecap="butt"
                stroke-linejoin="round"
                stroke="rgb(0, 0, 0)"
                />
            <path
                d="
                    M912.51 249.14
                    C909.19 256.95 903.81 256.95 900.49 249.14
                    C897.17 241.33 897.17 228.67 900.49 220.86
                    C903.81 213.05 909.19 213.05 912.51 220.86
                    C915.83 228.67 915.83 241.33 912.51 249.14
                    "
                fill="none"
                transform="translate(0.5 0.5)"
                stroke-width="1.00"
                stroke-linecap="butt"
                stroke-linejoin="round"
                stroke="rgb(0, 0, 0)"
                />
            
        </g>
        
        
        <!-- ** Connector Swoosh copy copy *************** -->
        
        <g>
            <path
                d="
                    M720.00 160.00
                    L820.00 160.00
                    L820.00 194.00
                    C820.00 194.00 808.00 187.00 795.00 187.00
                    C783.00 187.00 770.00 194.00 770.00 194.00
                    C770.00 194.00 758.00 200.00 745.00 200.00
                    C733.00 200.00 720.00 194.00 720.00 194.00
                    Z
                    "
                transform="
                    translate(0.5 0.5)
                    rotate(270 770.00 180.00)
                    "
                fill="rgb(34, 6, 159)"
                stroke-width="1.00"
                stroke-linecap="butt"
                stroke-linejoin="round"
                stroke="rgb(0, 0, 0)"
                />
            
        </g>
        
        
        <!-- ** Smart Path *************** -->
        
        <g>
            <path
                d="
                    M640.00 1000.00
                    C640.00 1000.00 616.83 1001.83 610.00 1000.00
                    C603.14 998.29 600.12 997.07 600.00 990.00
                    C599.75 982.93 599.88 687.07 600.00 680.00
                    C600.12 672.93 603.17 671.83 610.00 670.00
                    C616.83 668.17 640.00 670.00 640.00 670.00
                    "
                transform="
                    translate(0.5 0.5)
                    "
                fill="none"
                stroke-width="8.00"
                stroke-linecap="butt"
                stroke-linejoin="round"
                stroke="rgb(179, 179, 179)"
                />
            
        </g>
        
        
        <!-- ** Smart Path *************** -->
        
        <g>
            <path
                d="
                    M640.00 590.00
                    C640.00 590.00 577.00 589.02 570.00 590.00
                    C563.00 590.98 560.12 592.93 560.00 600.00
                    C559.88 607.07 559.75 1052.93 560.00 1060.00
                    C560.25 1067.07 562.98 1069.14 570.00 1070.00
                    C577.02 1070.86 640.00 1070.00 640.00 1070.00
                    "
                transform="
                    translate(0.5 0.5)
                    "
                fill="none"
                stroke-width="6.00"
                stroke-linecap="butt"
                stroke-linejoin="round"
                stroke="rgb(0, 0, 0)"
                />
            
        </g>
        
        
        <!-- ** Smart Path *************** -->
        
        <g>
            <path
                d="
                    M690.00 520.00
                    C690.00 520.00 690.98 467.00 690.00 460.00
                    C688.89 453.02 687.07 450.25 680.00 450.00
                    C672.93 449.88 290.00 450.00 290.00 450.00
                    "
                transform="
                    translate(0.5 0.5)
                    "
                fill="none"
                stroke-width="6.00"
                stroke-linecap="butt"
                stroke-linejoin="round"
                stroke="rgb(0, 0, 0)"
                />
            
        </g>
        
        
        <!-- ** Smart Path *************** -->
        
        <g>
            <path
                d="
                    M940.00 1000.00
                    C940.00 1000.00 973.40 1001.28 980.00 1000.00
                    C986.60 998.72 989.41 997.70 990.00 991.00
                    C990.59 984.30 990.62 907.04 990.00 900.00
                    C989.26 892.97 986.92 891.47 980.00 890.00
                    C973.06 888.65 940.00 890.00 940.00 890.00
                    "
                transform="
                    translate(0.5 0.5)
                    "
                fill="none"
                stroke-width="8.00"
                stroke-linecap="butt"
                stroke-linejoin="round"
                stroke="rgb(179, 179, 179)"
                />
            
        </g>
        
        
        <!-- ** Rounded Rectangle *************** -->
        
        <g>
            <path
                d="
                    M675.05 730.00
                    C661.21 730.00 650.00 718.79 650.00 704.95
                    L650.00 555.05
                    C650.00 541.21 661.21 530.00 675.05 530.00
                    L904.95 530.00
                    C918.79 530.00 930.00 541.21 930.00 555.05
                    L930.00 704.95
                    C930.00 718.79 918.79 730.00 904.95 730.00
                    Z
                    "
                fill="rgb(34, 6, 159)"
                />
            
            
            <text x="739.48" y="575.00"
            >
                <tspan style="font-family:Helvetica; font-size:36px; font-style:normal; font-weight:normal;" fill="rgb(255, 255, 255)">Power </tspan>
            </text>
            <text x="712.47" y="618.00"
            >
                <tspan style="font-family:Helvetica; font-size:36px; font-style:normal; font-weight:normal;" fill="rgb(255, 255, 255)">Controller</tspan>
            </text>
        </g>
        
        
        <!-- ** Tearaway *************** -->
        
        <g>
            <path
                d="
                    M600.00 560.00
                    L670.00 560.00
                    L670.00 610.00
                    L635.00 602.00
                    L635.00 610.00
                    L600.00 602.00
                    Z
                    "
                transform="
                    rotate(90 635.00 585.00)
                    "
                fill="rgb(34, 6, 159)"
                />
            
            
            <text x="613.00" y="574.00"
            transform="rotate(90 635.00 585.00)"
            >
                <tspan style="font-family:Helvetica; font-size:12px; font-style:normal; font-weight:normal;" fill="rgb(255, 255, 255)">Network </tspan>
            </text>
            <text x="617.99" y="588.00"
            transform="rotate(90 635.00 585.00)"
            >
                <tspan style="font-family:Helvetica; font-size:12px; font-style:normal; font-weight:normal;" fill="rgb(255, 255, 255)">Power</tspan>
            </text>
        </g>
        
        
        <!-- ** Tearaway *************** -->
        
        <g>
            <path
                d="
                    M670.00 500.00
                    L720.00 500.00
                    L720.00 530.00
                    L695.00 522.00
                    L695.00 530.00
                    L670.00 522.00
                    Z
                    "
                transform="
                    rotate(180 695.00 515.00)
                    "
                fill="rgb(34, 6, 159)"
                />
            
        </g>
        
        
        <!-- ** Tearaway *************** -->
        
        <g>
            <path
                d="
                    M730.00 500.00
                    L780.00 500.00
                    L780.00 530.00
                    L755.00 522.00
                    L755.00 530.00
                    L730.00 522.00
                    Z
                    "
                transform="
                    rotate(180 755.00 515.00)
                    "
                fill="rgb(34, 6, 159)"
                />
            
        </g>
        
        
        <!-- ** Tearaway *************** -->
        
        <g>
            <path
                d="
                    M790.00 500.00
                    L840.00 500.00
                    L840.00 530.00
                    L815.00 522.00
                    L815.00 530.00
                    L790.00 522.00
                    Z
                    "
                transform="
                    rotate(180 815.00 515.00)
                    "
                fill="rgb(34, 6, 159)"
                />
            
        </g>
        
        
        <!-- ** Tearaway *************** -->
        
        <g>
            <path
                d="
                    M850.00 500.00
                    L900.00 500.00
                    L900.00 530.00
                    L875.00 522.00
                    L875.00 530.00
                    L850.00 522.00
                    Z
                    "
                transform="
                    rotate(180 875.00 515.00)
                    "
                fill="rgb(34, 6, 159)"
                />
            
        </g>
        
        
        <!-- ** Tearaway *************** -->
        
        <g>
            <path
                d="
                    M910.00 600.00
                    L980.00 600.00
                    L980.00 650.00
                    L945.00 642.00
                    L945.00 650.00
                    L910.00 642.00
                    Z
                    "
                transform="
                    rotate(270 945.00 625.00)
                    "
                fill="rgb(34, 6, 159)"
                />
            
            
            <text x="922.99" y="614.00"
            transform="rotate(270 945.00 625.00)"
            >
                <tspan style="font-family:Helvetica; font-size:12px; font-style:normal; font-weight:normal;" fill="rgb(255, 255, 255)">External </tspan>
            </text>
            <text x="927.99" y="628.00"
            transform="rotate(270 945.00 625.00)"
            >
                <tspan style="font-family:Helvetica; font-size:12px; font-style:normal; font-weight:normal;" fill="rgb(255, 255, 255)">Power</tspan>
            </text>
        </g>
        
        
        <!-- ** Swoosh *************** -->
        
        <g>
            <path
                d="
                    M600.00 650.00
                    L670.00 650.00
                    L670.00 684.00
                    C670.00 684.00 661.00 677.00 653.00 677.00
                    C644.00 677.00 635.00 684.00 635.00 684.00
                    C635.00 684.00 626.00 690.00 618.00 690.00
                    C609.00 690.00 600.00 684.00 600.00 684.00
                    Z
                    "
                transform="
                    rotate(90 635.00 670.00)
                    "
                fill="rgb(34, 6, 159)"
                />
            
            
            <text x="612.32" y="667.00"
            transform="rotate(90 635.00 670.00)"
            >
                <tspan style="font-family:Helvetica; font-size:12px; font-style:normal; font-weight:normal;" fill="rgb(255, 255, 255)">Ethernet</tspan>
            </text>
        </g>
        
        
        <!-- ** Text *************** -->
        
        <g>
            <path
                d="
                    M700.00 650.00
                    L870.00 650.00
                    L870.00 700.00
                    L700.00 700.00
                    Z
                    "
                fill="none"
                />
            
            
            <text x="716.72" y="663.00"
            >
                <tspan style="font-family:Helvetica; font-size:13px; font-style:normal; font-weight:normal;" fill="rgb(255, 255, 255)">48V System Power Rail
                </tspan>
            </text>
            <text x="705.15" y="679.00"
            >
                <tspan style="font-family:Helvetica; font-size:13px; font-style:normal; font-weight:normal;" fill="rgb(255, 255, 255)">Switches between available
                </tspan>
            </text>
            <text x="742.73" y="695.00"
            >
                <tspan style="font-family:Helvetica; font-size:13px; font-style:normal; font-weight:normal;" fill="rgb(255, 255, 255)">power sources</tspan>
            </text>
        </g>
        
        
        <!-- ** Rounded Rectangle *************** -->
        
        <g>
            <path
                d="
                    M672.25 1120.00
                    C659.96 1120.00 650.00 1110.04 650.00 1097.75
                    L650.00 972.25
                    C650.00 959.96 659.96 950.00 672.25 950.00
                    L907.75 950.00
                    C920.04 950.00 930.00 959.96 930.00 972.25
                    L930.00 1097.75
                    C930.00 1110.04 920.04 1120.00 907.75 1120.00
                    Z
                    "
                fill="rgb(34, 6, 159)"
                />
            
            
            <text x="723.99" y="994.00"
            >
                <tspan style="font-family:Helvetica; font-size:36px; font-style:normal; font-weight:normal;" fill="rgb(255, 255, 255)">Network </tspan>
            </text>
            <text x="711.97" y="1037.00"
            >
                <tspan style="font-family:Helvetica; font-size:36px; font-style:normal; font-weight:normal;" fill="rgb(255, 255, 255)">Controller</tspan>
            </text>
        </g>
        
        
        <!-- ** Swoosh *************** -->
        
        <g>
            <path
                d="
                    M720.00 1110.00
                    L760.00 1110.00
                    L760.00 1144.00
                    C760.00 1144.00 755.00 1137.00 750.00 1137.00
                    C745.00 1137.00 740.00 1144.00 740.00 1144.00
                    C740.00 1144.00 735.00 1150.00 730.00 1150.00
                    C725.00 1150.00 720.00 1144.00 720.00 1144.00
                    Z
                    "
                fill="rgb(34, 6, 159)"
                />
            
            
            <text x="726.77" y="1128.50"
            >
                <tspan style="font-family:Helvetica; font-size:14px; font-style:normal; font-weight:normal;" fill="rgb(255, 255, 255)">PoE</tspan>
            </text>
        </g>
        
        
        <!-- ** Swoosh *************** -->
        
        <g>
            <path
                d="
                    M670.00 1110.00
                    L710.00 1110.00
                    L710.00 1144.00
                    C710.00 1144.00 705.00 1137.00 700.00 1137.00
                    C695.00 1137.00 690.00 1144.00 690.00 1144.00
                    C690.00 1144.00 685.00 1150.00 680.00 1150.00
                    C675.00 1150.00 670.00 1144.00 670.00 1144.00
                    Z
                    "
                fill="rgb(34, 6, 159)"
                />
            
            
            <text x="676.77" y="1128.50"
            >
                <tspan style="font-family:Helvetica; font-size:14px; font-style:normal; font-weight:normal;" fill="rgb(255, 255, 255)">PoE</tspan>
            </text>
        </g>
        
        
        <!-- ** Swoosh *************** -->
        
        <g>
            <path
                d="
                    M600.00 980.00
                    L670.00 980.00
                    L670.00 1014.00
                    C670.00 1014.00 661.00 1007.00 653.00 1007.00
                    C644.00 1007.00 635.00 1014.00 635.00 1014.00
                    C635.00 1014.00 626.00 1020.00 618.00 1020.00
                    C609.00 1020.00 600.00 1014.00 600.00 1014.00
                    Z
                    "
                transform="
                    rotate(90 635.00 1000.00)
                    "
                fill="rgb(34, 6, 159)"
                />
            
            
            <text x="608.54" y="998.50"
            transform="rotate(90 635.00 1000.00)"
            >
                <tspan style="font-family:Helvetica; font-size:14px; font-style:normal; font-weight:normal;" fill="rgb(255, 255, 255)">Ethernet</tspan>
            </text>
        </g>
        
        
        <!-- ** Text *************** -->
        
        <g>
            <path
                d="
                    M680.00 1050.00
                    L900.00 1050.00
                    L900.00 1100.00
                    L680.00 1100.00
                    Z
                    "
                fill="none"
                />
            
            
            <text x="748.75" y="1063.00"
            >
                <tspan style="font-family:Helvetica; font-size:14px; font-style:normal; font-weight:normal;" fill="rgb(255, 255, 255)">IEEE 802.3bt
                </tspan>
            </text>
            <text x="706.35" y="1080.00"
            >
                <tspan style="font-family:Helvetica; font-size:14px; font-style:normal; font-weight:normal;" fill="rgb(255, 255, 255)">Power over Ethernet (PoE)
                </tspan>
            </text>
            <text x="684.56" y="1097.00"
            >
                <tspan style="font-family:Helvetica; font-size:14px; font-style:normal; font-weight:normal;" fill="rgb(255, 255, 255)">Power Sourcing Equipment (PSE) </tspan>
            </text>
        </g>
        
        
        <!-- ** Swoosh *************** -->
        
        <g>
            <path
                d="
                    M770.00 1110.00
                    L810.00 1110.00
                    L810.00 1144.00
                    C810.00 1144.00 805.00 1137.00 800.00 1137.00
                    C795.00 1137.00 790.00 1144.00 790.00 1144.00
                    C790.00 1144.00 785.00 1150.00 780.00 1150.00
                    C775.00 1150.00 770.00 1144.00 770.00 1144.00
                    Z
                    "
                fill="rgb(34, 6, 159)"
                />
            
            
            <text x="776.77" y="1128.50"
            >
                <tspan style="font-family:Helvetica; font-size:14px; font-style:normal; font-weight:normal;" fill="rgb(255, 255, 255)">PoE</tspan>
            </text>
        </g>
        
        
        <!-- ** Swoosh *************** -->
        
        <g>
            <path
                d="
                    M820.00 1110.00
                    L860.00 1110.00
                    L860.00 1144.00
                    C860.00 1144.00 855.00 1137.00 850.00 1137.00
                    C845.00 1137.00 840.00 1144.00 840.00 1144.00
                    C840.00 1144.00 835.00 1150.00 830.00 1150.00
                    C825.00 1150.00 820.00 1144.00 820.00 1144.00
                    Z
                    "
                fill="rgb(34, 6, 159)"
                />
            
            
            <text x="826.77" y="1128.50"
            >
                <tspan style="font-family:Helvetica; font-size:14px; font-style:normal; font-weight:normal;" fill="rgb(255, 255, 255)">PoE</tspan>
            </text>
        </g>
        
        
        <!-- ** Swoosh *************** -->
        
        <g>
            <path
                d="
                    M920.00 980.00
                    L970.00 980.00
                    L970.00 1014.00
                    C970.00 1014.00 964.00 1007.00 958.00 1007.00
                    C951.00 1007.00 945.00 1014.00 945.00 1014.00
                    C945.00 1014.00 939.00 1020.00 933.00 1020.00
                    C926.00 1020.00 920.00 1014.00 920.00 1014.00
                    Z
                    "
                transform="
                    rotate(270 945.00 1000.00)
                    "
                fill="rgb(34, 6, 159)"
                />
            
            
            <text x="931.77" y="998.50"
            transform="rotate(270 945.00 1000.00)"
            >
                <tspan style="font-family:Helvetica; font-size:14px; font-style:normal; font-weight:normal;" fill="rgb(255, 255, 255)">PoE</tspan>
            </text>
        </g>
        
        
        <!-- ** Tearaway *************** -->
        
        <g>
            <path
                d="
                    M610.00 1060.00
                    L670.00 1060.00
                    L670.00 1090.00
                    L640.00 1082.00
                    L640.00 1090.00
                    L610.00 1082.00
                    Z
                    "
                transform="
                    rotate(90 640.00 1075.00)
                    "
                fill="rgb(34, 6, 159)"
                />
            
            
            <text x="620.16" y="1077.00"
            transform="rotate(90 640.00 1075.00)"
            >
                <tspan style="font-family:Helvetica; font-size:14px; font-style:normal; font-weight:normal;" fill="rgb(255, 255, 255)">Power</tspan>
            </text>
        </g>
        
        
        <!-- ** Swoosh *************** -->
        
        <g>
            <path
                d="
                    M910.00 1050.00
                    L980.00 1050.00
                    L980.00 1084.00
                    C980.00 1084.00 971.00 1077.00 963.00 1077.00
                    C954.00 1077.00 945.00 1084.00 945.00 1084.00
                    C945.00 1084.00 936.00 1090.00 928.00 1090.00
                    C919.00 1090.00 910.00 1084.00 910.00 1084.00
                    Z
                    "
                transform="
                    rotate(270 945.00 1070.00)
                    "
                fill="rgb(34, 6, 159)"
                />
            
            
            <text x="918.54" y="1068.50"
            transform="rotate(270 945.00 1070.00)"
            >
                <tspan style="font-family:Helvetica; font-size:14px; font-style:normal; font-weight:normal;" fill="rgb(255, 255, 255)">Ethernet</tspan>
            </text>
        </g>
        
        
        <!-- ** Swoosh *************** -->
        
        <g>
            <path
                d="
                    M870.00 1110.00
                    L910.00 1110.00
                    L910.00 1144.00
                    C910.00 1144.00 905.00 1137.00 900.00 1137.00
                    C895.00 1137.00 890.00 1144.00 890.00 1144.00
                    C890.00 1144.00 885.00 1150.00 880.00 1150.00
                    C875.00 1150.00 870.00 1144.00 870.00 1144.00
                    Z
                    "
                fill="rgb(34, 6, 159)"
                />
            
            
            <text x="876.77" y="1128.50"
            >
                <tspan style="font-family:Helvetica; font-size:14px; font-style:normal; font-weight:normal;" fill="rgb(255, 255, 255)">PoE</tspan>
            </text>
        </g>
        
        
        <!-- ** Big Arrow *************** -->
        
        <g>
            <path
                d="
                    M340.00 446.00
                    L390.00 446.00
                    L390.00 430.00
                    L410.00 450.00
                    L390.00 470.00
                    L390.00 454.00
                    L340.00 454.00
                    Z
                    "
                fill="rgb(0, 0, 0)"
                />
            
        </g>
        
        
        <!-- ** Lightning Bolt copy copy *************** -->
        
        <g>
            <path
                d="
                    M370.00 420.00
                    L380.00 420.00
                    L370.00 440.00
                    L380.00 440.00
                    L360.00 480.00
                    L370.00 450.00
                    L360.00 450.00
                    L370.00 420.00
                    Z
                    "
                transform="
                    translate(0.5 0.5)
                    "
                fill="rgb(255, 255, 102)"
                stroke-width="1.00"
                stroke-linecap="round"
                stroke-linejoin="round"
                stroke="rgb(0, 0, 0)"
                />
            
        </g>
        
        
        <!-- ** Text *************** -->
        
        <g>
            <path
                d="
                    M290.00 390.00
                    L422.00 390.00
                    L422.00 415.00
                    L290.00 415.00
                    Z
                    "
                fill="none"
                />
            
            
            <text x="290.06" y="409.00"
            >
                <tspan style="font-family:Helvetica; font-size:21px; font-style:normal; font-weight:normal;" fill="rgb(0, 0, 0)">Battery Power</tspan>
            </text>
        </g>
        
        
        <!-- ** Rounded Rectangle *************** -->
        
        <g>
            <path
                d="
                    M675.05 930.00
                    C661.21 930.00 650.00 918.79 650.00 904.95
                    L650.00 775.05
                    C650.00 761.21 661.21 750.00 675.05 750.00
                    L904.95 750.00
                    C918.79 750.00 930.00 761.21 930.00 775.05
                    L930.00 904.95
                    C930.00 918.79 918.79 930.00 904.95 930.00
                    Z
                    "
                fill="rgb(34, 6, 159)"
                />
            
            
            <text x="742.49" y="795.00"
            >
                <tspan style="font-family:Helvetica; font-size:36px; font-style:normal; font-weight:normal;" fill="rgb(255, 255, 255)">Fluids
                </tspan>
            </text>
            <text x="707.47" y="838.00"
            >
                <tspan style="font-family:Helvetica; font-size:36px; font-style:normal; font-weight:normal;" fill="rgb(255, 255, 255)"> Controller</tspan>
            </text>
        </g>
        
        
        <!-- ** Tearaway *************** -->
        
        <g>
            <path
                d="
                    M920.00 770.00
                    L960.00 770.00
                    L960.00 810.00
                    L940.00 802.00
                    L940.00 810.00
                    L920.00 802.00
                    Z
                    "
                transform="
                    rotate(270 940.00 790.00)
                    "
                fill="rgb(34, 6, 159)"
                />
            
        </g>
        
        
        <!-- ** Tearaway *************** -->
        
        <g>
            <path
                d="
                    M920.00 820.00
                    L960.00 820.00
                    L960.00 860.00
                    L940.00 852.00
                    L940.00 860.00
                    L920.00 852.00
                    Z
                    "
                transform="
                    rotate(270 940.00 840.00)
                    "
                fill="rgb(34, 6, 159)"
                />
            
        </g>
        
        
        <!-- ** Text *************** -->
        
        <g>
            <path
                d="
                    M710.00 870.00
                    L890.00 870.00
                    L890.00 900.00
                    L710.00 900.00
                    Z
                    "
                fill="none"
                />
            
            
            <text x="711.84" y="881.00"
            >
                <tspan style="font-family:Helvetica; font-size:13px; font-style:normal; font-weight:normal;" fill="rgb(255, 255, 255)">Provides power and control for
                </tspan>
            </text>
            <text x="732.43" y="897.00"
            >
                <tspan style="font-family:Helvetica; font-size:13px; font-style:normal; font-weight:normal;" fill="rgb(255, 255, 255)">fluid pumps and routing</tspan>
            </text>
        </g>
        
        
        <!-- ** Swoosh *************** -->
        
        <g>
            <path
                d="
                    M920.00 870.00
                    L960.00 870.00
                    L960.00 904.00
                    C960.00 904.00 955.00 897.00 950.00 897.00
                    C945.00 897.00 940.00 904.00 940.00 904.00
                    C940.00 904.00 935.00 910.00 930.00 910.00
                    C925.00 910.00 920.00 904.00 920.00 904.00
                    Z
                    "
                transform="
                    rotate(270 940.00 890.00)
                    "
                fill="rgb(34, 6, 159)"
                />
            
            
            <text x="926.77" y="888.50"
            transform="rotate(270 940.00 890.00)"
            >
                <tspan style="font-family:Helvetica; font-size:14px; font-style:normal; font-weight:normal;" fill="rgb(255, 255, 255)">PoE</tspan>
            </text>
        </g>
        
        
        <!-- ** Bezier Shape *************** -->
        
        <g>
            <defs>
                <clipPath id="clipPath-7E17AAC1-6111-40B1-85F9-5259D3C6E75D">
                    <path d="
                        M-10000,-10000 h100000 v100000 h-100000 v-100000
                        M1026.00 782.50
                        L1065.00 782.50
                        L1065.00 797.50
                        L1026.00 797.50
                        Z
                        "
                    clip-rule="evenodd"/>
                </clipPath>
            </defs>
            
            <path
                d="
                    M1020.00 770.00
                    L1020.00 780.00
                    L1000.00 780.00
                    L1000.00 800.00
                    L1020.00 800.00
                    L1020.00 810.00
                    L1070.00 840.00
                    L1070.00 740.00
                    L1020.00 770.00
                    Z
                    "
                clip-path="url(#clipPath-7E17AAC1-6111-40B1-85F9-5259D3C6E75D)"
                transform="
                    translate(0.5 0.5)
                    "
                fill="rgb(34, 6, 159)"
                stroke-width="1.00"
                stroke-linecap="round"
                stroke-linejoin="round"
                stroke="rgb(0, 0, 0)"
                />
            
            
            <text x="1032.15" y="793.50"
            >
                <tspan style="font-family:Helvetica; font-size:12px; font-style:normal; font-weight:normal;" fill="rgb(255, 255, 255)">Pump</tspan>
            </text>
        </g>
        
        
        <!-- ** Triangle *************** -->
        
        <g>
            <path
                d="
                    M1450.00 270.00
                    L1505.00 170.00
                    L1560.00 270.00
                    Z
                    "
                transform="
                    rotate(90 1505.00 220.00)
                    "
                fill="rgb(34, 6, 159)"
                />
            
        </g>
        
        
        <!-- ** Text *************** -->
        
        <g>
            <path
                d="
                    M1460.00 210.00
                    L1530.00 210.00
                    L1530.00 230.00
                    L1460.00 230.00
                    Z
                    "
                fill="none"
                />
            
            
            <text x="1460.52" y="225.00"
            >
                <tspan style="font-family:Helvetica; font-size:17px; font-style:normal; font-weight:normal;" fill="rgb(255, 255, 255)">Umbilical</tspan>
            </text>
        </g>
        
        
        <!-- ** Big Arrow *************** -->
        
        <g>
            <path
                d="
                    M1290.00 196.00
                    L1340.00 196.00
                    L1340.00 180.00
                    L1360.00 200.00
                    L1340.00 220.00
                    L1340.00 204.00
                    L1290.00 204.00
                    Z
                    "
                transform="
                    rotate(180 1325.00 200.00)
                    "
                fill="rgb(0, 0, 0)"
                />
            
        </g>
        
        
        <!-- ** Lightning Bolt copy copy copy *************** -->
        
        <g>
            <path
                d="
                    M1330.00 170.00
                    L1340.00 170.00
                    L1330.00 190.00
                    L1340.00 190.00
                    L1320.00 230.00
                    L1330.00 200.00
                    L1320.00 200.00
                    L1330.00 170.00
                    Z
                    "
                transform="
                    translate(0.5 0.5)
                    "
                fill="rgb(255, 255, 102)"
                stroke-width="1.00"
                stroke-linecap="round"
                stroke-linejoin="round"
                stroke="rgb(0, 0, 0)"
                />
            
        </g>
        
        
        <!-- ** Text *************** -->
        
        <g>
            <path
                d="
                    M1256.00 133.00
                    L1392.00 133.00
                    L1392.00 157.00
                    L1256.00 157.00
                    Z
                    "
                fill="none"
                />
            
            
            <text x="1256.19" y="151.00"
            >
                <tspan style="font-family:Helvetica; font-size:20px; font-style:normal; font-weight:normal;" fill="rgb(0, 0, 0)">External Power</tspan>
            </text>
        </g>
        
    </g>
</svg>

